<svg width="17" height="13" viewBox="0 0 17 13" fill="none" xmlns="http://www.w3.org/2000/svg">
<g clip-path="url(#clip0_454_3247)">
<path d="M8.50017 5.25487C8.6996 5.25453 8.89388 5.31644 9.05442 5.43147L16.6229 10.8654C16.7214 10.9362 16.8046 11.0251 16.8677 11.1271C16.9308 11.2292 16.9726 11.3423 16.9908 11.46C17.0275 11.6978 16.9655 11.94 16.8185 12.1334C16.6715 12.3267 16.4516 12.4554 16.207 12.491C15.9624 12.5267 15.7133 12.4665 15.5144 12.3235L8.50017 7.2926L1.48592 12.3235C1.38745 12.3943 1.27561 12.4455 1.15677 12.4743C1.03794 12.503 0.914454 12.5087 0.793356 12.491C0.672257 12.4734 0.555924 12.4327 0.450997 12.3713C0.346068 12.31 0.254599 12.2291 0.181815 12.1334C0.10903 12.0376 0.0563531 11.9289 0.0267931 11.8133C-0.00276701 11.6978 -0.0086321 11.5777 0.00953158 11.46C0.0276972 11.3423 0.0695349 11.2292 0.13266 11.1271C0.195784 11.0251 0.278958 10.9362 0.377432 10.8654L7.94592 5.43147C8.10646 5.31644 8.30074 5.25453 8.50017 5.25487Z" fill="white"/>
<path d="M8.5 0.500001C8.69943 0.499667 8.89371 0.56157 9.05425 0.676604L16.6227 6.11057C16.8216 6.25348 16.954 6.46736 16.9906 6.70514C17.0273 6.94292 16.9654 7.18513 16.8184 7.37849C16.6714 7.57185 16.4514 7.70051 16.2068 7.73618C15.9622 7.77185 15.7131 7.7116 15.5142 7.56868L8.5 2.53774L1.48576 7.56868C1.28688 7.7116 1.03775 7.77185 0.793188 7.73618C0.548619 7.70051 0.328642 7.57185 0.181647 7.37849C0.0346513 7.18513 -0.0273203 6.94292 0.00936374 6.70514C0.0460497 6.46736 0.178387 6.25348 0.377264 6.11057L7.94576 0.676604C8.1063 0.561569 8.30057 0.499667 8.5 0.500001Z" fill="white"/>
</g>
<defs>
<clipPath id="clip0_454_3247">
<rect width="17" height="12" fill="white" transform="translate(17 12.5) rotate(-180)"/>
</clipPath>
</defs>
</svg>
