<svg width="17" height="13" viewBox="0 0 17 13" fill="none" xmlns="http://www.w3.org/2000/svg">
<g clip-path="url(#clip0_454_3240)">
<path d="M8.49983 7.74513C8.3004 7.74547 8.10612 7.68356 7.94558 7.56853L0.377089 2.13457C0.278616 2.0638 0.195443 1.97487 0.132319 1.87285C0.0691945 1.77084 0.0273558 1.65773 0.0091911 1.53999C-0.0274941 1.30221 0.0344775 1.06 0.181473 0.866641C0.328468 0.673283 0.548446 0.544618 0.793014 0.508951C1.03758 0.473283 1.28671 0.533535 1.48558 0.676452L8.49983 5.7074L15.5141 0.676453C15.6125 0.605688 15.7244 0.554473 15.8432 0.525733C15.9621 0.496993 16.0855 0.491291 16.2066 0.508951C16.3277 0.526612 16.4441 0.56729 16.549 0.628663C16.6539 0.690035 16.7454 0.770901 16.8182 0.866642C16.891 0.962383 16.9436 1.07112 16.9732 1.18666C17.0028 1.30219 17.0086 1.42226 16.9905 1.53999C16.9723 1.65773 16.9305 1.77084 16.8673 1.87285C16.8042 1.97487 16.721 2.0638 16.6226 2.13457L9.05408 7.56853C8.89354 7.68356 8.69926 7.74547 8.49983 7.74513Z" fill="white"/>
<path d="M8.5 12.5C8.30057 12.5003 8.10629 12.4384 7.94575 12.3234L0.377257 6.88944C0.178381 6.74652 0.0460441 6.53265 0.00935894 6.29487C-0.0273262 6.05709 0.0346454 5.81487 0.181641 5.62152C0.328636 5.42816 0.548614 5.29949 0.793182 5.26383C1.03775 5.22816 1.28687 5.28841 1.48575 5.43133L8.5 10.4623L15.5142 5.43133C15.7131 5.28841 15.9622 5.22816 16.2068 5.26383C16.4514 5.29949 16.6714 5.42816 16.8184 5.62152C16.9653 5.81487 17.0273 6.05709 16.9906 6.29487C16.954 6.53265 16.8216 6.74652 16.6227 6.88944L9.05424 12.3234C8.8937 12.4384 8.69943 12.5003 8.5 12.5Z" fill="white"/>
</g>
<defs>
<clipPath id="clip0_454_3240">
<rect width="17" height="12" fill="white" transform="translate(0 0.5)"/>
</clipPath>
</defs>
</svg>
