<svg width="17" height="7" viewBox="0 0 17 7" fill="none" xmlns="http://www.w3.org/2000/svg">
<path d="M16.0685 6.66667H0.931507C0.684456 6.66667 0.447523 6.56781 0.272832 6.39185C0.0981406 6.21589 0 5.97724 0 5.72839C0 5.47955 0.0981406 5.2409 0.272832 5.06494C0.447523 4.88898 0.684456 4.79012 0.931507 4.79012H16.0685C16.3155 4.79012 16.5525 4.88898 16.7272 5.06494C16.9019 5.2409 17 5.47955 17 5.72839C17 5.97724 16.9019 6.21589 16.7272 6.39185C16.5525 6.56781 16.3155 6.66667 16.0685 6.66667Z" fill="white"/>
<path d="M16.0685 2.20988H0.931507C0.684456 2.20988 0.447523 2.11102 0.272832 1.93506C0.0981406 1.7591 0 1.52045 0 1.2716C0 1.02276 0.0981406 0.784106 0.272832 0.608145C0.447523 0.432185 0.684456 0.333332 0.931507 0.333332L16.0685 0.333332C16.3155 0.333332 16.5525 0.432185 16.7272 0.608145C16.9019 0.784106 17 1.02276 17 1.2716C17 1.52045 16.9019 1.7591 16.7272 1.93506C16.5525 2.11102 16.3155 2.20988 16.0685 2.20988Z" fill="white"/>
</svg>
