<svg width="22" height="23" viewBox="0 0 22 23" fill="none" xmlns="http://www.w3.org/2000/svg">
<path d="M17.0628 18.797C15.304 19.9126 13.2635 20.5033 11.1808 20.5C5.78882 20.5 1.30282 16.62 0.361816 11.5C0.791846 9.17072 1.96345 7.0429 3.70182 5.43401L0.572816 2.30801L1.98782 0.893005L21.7868 20.693L20.3718 22.107L17.0618 18.797H17.0628ZM5.11582 6.85001C3.75682 8.0856 2.81013 9.70879 2.40382 11.5C2.71611 12.8665 3.34308 14.1411 4.23482 15.2226C5.12656 16.304 6.25844 17.1624 7.54037 17.7293C8.8223 18.2962 10.2189 18.5561 11.6189 18.4881C13.0189 18.4202 14.3838 18.0264 15.6048 17.338L13.5768 15.31C12.7135 15.8538 11.691 16.0881 10.6771 15.9744C9.66309 15.8608 8.71786 15.4059 7.99639 14.6844C7.27492 13.963 6.82004 13.0177 6.70638 12.0038C6.59271 10.9898 6.827 9.96732 7.37082 9.10401L5.11582 6.85001ZM12.0948 13.828L8.85282 10.586C8.67488 11.0389 8.633 11.534 8.73232 12.0104C8.83164 12.4867 9.06783 12.9238 9.41193 13.2679C9.75604 13.612 10.1931 13.8482 10.6695 13.9475C11.1459 14.0468 11.6409 14.0049 12.0938 13.827L12.0948 13.828ZM19.9878 16.092L18.5568 14.662C19.2253 13.7093 19.7012 12.6352 19.9578 11.5C19.6861 10.3097 19.1751 9.18715 18.456 8.2005C17.7368 7.21385 16.8246 6.38373 15.7747 5.76061C14.7248 5.13749 13.5591 4.73437 12.3485 4.57577C11.138 4.41717 9.90782 4.50638 8.73282 4.83801L7.15482 3.26001C8.40182 2.77001 9.76082 2.50001 11.1808 2.50001C16.5728 2.50001 21.0588 6.38001 21.9998 11.5C21.6934 13.1657 21.0047 14.7376 19.9878 16.092ZM10.9038 7.00801C11.5403 6.96867 12.1779 7.06507 12.7744 7.29082C13.3708 7.51657 13.9124 7.86652 14.3634 8.31746C14.8143 8.7684 15.1642 9.31003 15.39 9.90646C15.6158 10.5029 15.7122 11.1405 15.6728 11.777L10.9028 7.00801H10.9038Z" fill="#A8A8A8"/>
</svg>
