<svg width="27" height="23" viewBox="0 0 27 23" fill="none" xmlns="http://www.w3.org/2000/svg">
<path d="M20.9984 2.96567L20.9984 20.9657C20.9979 21.4959 20.787 22.0043 20.412 22.3793C20.0371 22.7543 19.5287 22.9651 18.9984 22.9657L14.9984 22.9657C14.4681 22.9651 13.9597 22.7543 13.5848 22.3793C13.2098 22.0043 12.9989 21.4959 12.9984 20.9657L12.9984 2.96567C12.9989 2.4354 13.2098 1.927 13.5848 1.55204C13.9597 1.17708 14.4681 0.966199 14.9984 0.965669L18.9984 0.965669C19.5287 0.966199 20.0371 1.17708 20.412 1.55204C20.787 1.927 20.9979 2.4354 20.9984 2.96567ZM14.9984 20.9657L18.9984 20.9657L18.9984 2.96567L14.9984 2.96567L14.9984 20.9657ZM14.9984 2.96567L14.9984 20.9657C14.9979 21.4959 14.787 22.0043 14.412 22.3793C14.0371 22.7542 13.5287 22.9651 12.9984 22.9656L8.99841 22.9656C8.46814 22.9651 7.95974 22.7542 7.58478 22.3793C7.20983 22.0043 6.99894 21.4959 6.99841 20.9656L6.99841 2.96565C6.99894 2.43538 7.20983 1.92698 7.58478 1.55202C7.95974 1.17706 8.46814 0.96618 8.99841 0.96565L12.9984 0.96565C13.5287 0.96618 14.0371 1.17706 14.412 1.55202C14.787 1.92698 14.9979 2.4354 14.9984 2.96567ZM8.99841 20.9656L12.9984 20.9657L12.9984 2.96567L8.99841 2.96565L8.99841 20.9656ZM8.99841 2.96565L8.99841 20.9656C8.99788 21.4959 8.787 22.0043 8.41204 22.3793C8.03708 22.7542 7.52868 22.9651 6.99841 22.9656L2.99841 22.9656C2.46814 22.9651 1.95974 22.7542 1.58478 22.3793C1.20983 22.0043 0.998942 21.4959 0.998413 20.9656L0.998412 2.96565C0.998942 2.43538 1.20983 1.92698 1.58478 1.55202C1.95974 1.17706 2.46814 0.966181 2.99841 0.96565L6.99841 0.96565C7.52868 0.966181 8.03708 1.17706 8.41204 1.55202C8.787 1.92698 8.99788 2.43538 8.99841 2.96565ZM2.99841 20.9656L6.99841 20.9656L6.99841 2.96565L2.99841 2.96565L2.99841 20.9656Z" fill="#CDCDCD"/>
<path d="M26.9984 2.96589L26.9984 20.9659C26.9979 21.4962 26.787 22.0046 26.412 22.3795C26.0371 22.7545 25.5287 22.9654 24.9984 22.9659L20.9984 22.9659C20.4681 22.9654 19.9597 22.7545 19.5848 22.3795C19.2098 22.0046 18.9989 21.4959 18.9984 20.9657L18.9984 2.96567C18.9989 2.4354 19.2098 1.92722 19.5848 1.55226C19.9597 1.1773 20.4681 0.966422 20.9984 0.965892L24.9984 0.965892C25.5287 0.966422 26.0371 1.1773 26.412 1.55226C26.787 1.92722 26.9979 2.43562 26.9984 2.96589ZM20.9984 20.9657L24.9984 20.9659L24.9984 2.96589L20.9984 2.96567L20.9984 20.9657Z" fill="#CDCDCD"/>
</svg>
